<?xml version="1.0" encoding="UTF-8"?>
<!--Generator: Apple Native CoreSVG 232.5-->
<!DOCTYPE svg
PUBLIC "-//W3C//DTD SVG 1.1//EN"
       "http://www.w3.org/Graphics/SVG/1.1/DTD/svg11.dtd">
<svg version="1.1" xmlns="http://www.w3.org/2000/svg" xmlns:xlink="http://www.w3.org/1999/xlink" width="68.1152" height="41.8457">
 <g>
  <rect height="41.8457" opacity="0" width="68.1152" x="0" y="0"/>
  <path d="M1.17188 31.3965C0.439453 32.0801 0 33.1055 0 34.2285C0 36.5234 1.75781 38.2812 4.05273 38.2812C5.17578 38.2812 6.20117 37.8418 6.88477 37.1094L36.3281 7.51953L31.7871 7.51953L61.2305 37.1094C61.9141 37.8418 63.0371 38.2812 64.1113 38.2812C66.4062 38.2812 68.1152 36.5234 68.1152 34.2285C68.1152 33.1055 67.6758 32.0801 66.9434 31.3965L36.9629 1.2207C36.2305 0.390625 35.1562 0 34.082 0C32.959 0 31.9336 0.390625 31.2012 1.2207Z" fill="#ffffff" fill-opacity="0.85"/>
 </g>
</svg>
