<?xml version="1.0" encoding="UTF-8"?>
<!--Generator: Apple Native CoreSVG 232.5-->
<!DOCTYPE svg
PUBLIC "-//W3C//DTD SVG 1.1//EN"
       "http://www.w3.org/Graphics/SVG/1.1/DTD/svg11.dtd">
<svg version="1.1" xmlns="http://www.w3.org/2000/svg" xmlns:xlink="http://www.w3.org/1999/xlink" width="68.1152" height="42.1387">
 <g>
  <rect height="42.1387" opacity="0" width="68.1152" x="0" y="0"/>
  <path d="M34.082 42.1387C35.1562 42.1387 36.2305 41.748 36.9629 40.918L66.9434 10.7422C67.6758 10.0098 68.1152 9.0332 68.1152 7.91016C68.1152 5.61523 66.4062 3.85742 64.1113 3.85742C63.0371 3.85742 61.9629 4.3457 61.2305 5.0293L31.7871 34.5703L36.3281 34.5703L6.88477 5.0293C6.15234 4.3457 5.17578 3.85742 4.05273 3.85742C1.75781 3.85742 0 5.61523 0 7.91016C0 9.0332 0.439453 10.0098 1.17188 10.7422L31.2012 40.918C31.9824 41.748 32.959 42.1387 34.082 42.1387Z" fill="#ffffff" fill-opacity="0.85"/>
 </g>
</svg>
